<?xml version="1.0" encoding="UTF-8"?>
<svg id="Layer_2" data-name="Layer 2" xmlns="http://www.w3.org/2000/svg" viewBox="0 0 1216.71 1352.15">
  <defs>
    <style>
      .cls-1 {
        fill: #fff;
        stroke-width: 0px;
      }
    </style>
  </defs>
  <g id="Layer_1-2" data-name="Layer 1">
    <path class="cls-1" d="M735.67,570.96c-17.7-.16-30.39,17.61-28.37,39.68,2.03,22.08,18.02,40.09,35.71,40.25,17.7.15,30.39-17.61,28.37-39.69-2.03-22.07-18.02-40.09-35.71-40.24ZM737.17,641.56c-12.33-.11-23.47-12.67-24.89-28.05-1.42-15.39,7.44-27.77,19.77-27.66,12.33.11,23.48,12.67,24.89,28.05,1.41,15.39-7.44,27.77-19.77,27.66ZM567.86,1203.81l-109.11,4,107.84-13.74-111.42,5.63,82.17-13.42-78.87,3.6,57.77-10.75-54.3,2.06c-7.59,6.29-12.07,17.48-10.91,29.74,1.07,11.29,6.67,20.78,14.29,25.92l11.76-24.16,66.53-5.6,24.26-3.28ZM708.53,492.61c-13.83-.12-23.76,13.77-22.17,31.02,1.59,17.26,14.09,31.35,27.92,31.47,13.84.12,23.76-13.77,22.18-31.03-1.59-17.25-14.09-31.34-27.92-31.46ZM709.7,547.82c-9.64-.09-18.35-9.9-19.46-21.93-1.1-12.03,5.82-21.71,15.46-21.63,9.64.08,18.35,9.9,19.46,21.93,1.1,12.03-5.81,21.71-15.46,21.63ZM278.09,553.95c-1.75.06-3.04.12-3.68.18-10.91,1.04-18.99,13.86-20.65,30.67-.28,1.31-.5,2.69-.67,4.08l-71.22,23.21,71.63-27.5c.17-1.68.4-3.32.7-4.91-19.18,6.83-46.21,16.61-57.97,20.82-8.89-5.52-20.36-7.82-31.7-6.74-22.45,2.13-35.39,20.43-33.17,43.89,2.22,23.45,21.29,41.89,43.73,39.76,13.61-1.29,25.15-11.31,31.66-24.21,11.87-3.63,44.14-13.89,63.6-20.06.84.62,1.7,1.19,2.58,1.66-.78-.51-1.53-1.12-2.28-1.76.04-.01.09-.03.12-.04-.52-.38-1.02-.85-1.53-1.28-2.24-2.19-4.32-4.85-6.15-7.96.89.78,1.82,1.46,2.78,1.99-3.03-2.09-5.68-5.5-7.72-9.78-1.49-3.52-2.65-7.39-3.5-11.47-.31-1.89-.56-3.83-.66-5.85-.87-17.21,6.7-31.94,16.9-32.91,2.35-.22,4.64.32,6.78,1.48,6.51,4.4,11.38,14.71,12,27.16.87,17.21-6.7,31.94-16.9,32.91,2.12-.2,3.08-.08,6.33-.39,10.14-.96,17.66-15.61,16.8-32.71-.81-16.04-8.7-28.54-18.03-29.25-.62-.04-5.53-.26-7.94.01.03,0,.08,0,.12,0-.14,0-.28,0-.43.02-4.56.43-8.58,3.62-11.57,8.54,3.54-10.43,10.04-17.59,18.08-18.35,2.91-.28,5.78.36,8.52,1.68.31.17.62.32.93.5,8.82,5.95,15.8,19.49,17.35,35.82,2.17,22.84-7.11,42.4-20.7,43.69.43-.04,1.75-.1,3.68-.16l16.08,169.69c-5.31,10.57-8.22,24.61-7.45,39.74.91,18.09,6.86,33.63,15.3,43.03l2.83,29.84-1.95-28.89c2.28,2.37,4.71,4.32,7.28,5.75-11.5-7.93-20.08-26.27-21.2-48.35-1.54-30.7,11.96-56.98,30.16-58.71,3.81-.36,7.5.45,11,2.13,11.93,7.42,20.99,26.49,22.15,49.6.54,10.74-.73,20.9-3.33,29.69-5.07,16.02-14.8,27.27-26.48,28.37,3.79-.36,20.95-.72,26.77-1.27,18.09-1.71,31.55-27.47,30.01-57.99-1.45-28.61-15.48-50.55-32.15-51.81-1.09-.08-27.63-.17-27.89-.17-.77-.02-1.55,0-2.34.07-7.79.74-14.7,6-19.96,14.15l-11.14-165.1c13.21-.36,33.44-.85,36.44-1.13,13.51-1.28,22.73-20.72,20.57-43.42-2.01-21.29-13.3-37.88-25.84-38.81-.57-.04-21.91.26-36.76.59l-.69-10.19,279.75-120.42-290.64,113.44,1.65,17.43ZM253.05,589.22c-.23,1.93-.35,3.92-.36,5.96l-75.05,22.56,75.41-28.52ZM192.9,655.59c-11.35,1.08-21.72-10.31-23.15-25.41-.18-1.96-.2-3.88-.08-5.75-3.62-1.35-12.23-4.15-20.54-3.67,3.98-2.65,16.74-3.01,21.66-3.05.08-.31.16-.62.25-.93-3.12-1.43-10.79-4.01-25.49-3.8,7.26-3.33,23.13-3.45,28.82-3.38.14-.21.28-.42.42-.63-3.89-1.48-14.23-4.89-25.99-4.42,13.25-4.18,25.59-1.25,29.98.08,2.6-2.12,5.61-3.48,8.93-3.79,1.99-.19,3.94.06,5.83.6-1.88.67-3.01,1.06-3.16,1.1-10.14,2.44-17.02,12.56-15.77,26.24,1.33,14.54,11.08,24.47,22.54,25.76-1.36.53-2.77.9-4.26,1.04ZM180.45,622.24l72.24-26.6c0,.74,0,1.48.04,2.24.06,1.25.18,2.47.32,3.66l-72.6,20.69ZM273.55,565.29s.07.03.11.03c-.11-.03-.23-.06-.35-.08.08.02.17.03.24.05ZM720.87,1166.56c-10.76,1.02-18.58,11.36-17.47,23.09,1.11,11.74,10.73,20.43,21.49,19.41,10.76-1.02,18.58-11.36,17.46-23.1-1.11-11.74-10.73-20.42-21.49-19.4ZM268.05,607.6c.75-.07,1.09-.03,2.25-.14,3.6-.34,6.26-5.54,5.96-11.6-.29-5.69-3.09-10.12-6.4-10.37-.22-.02-1.96-.1-2.81,0h.04s-.1,0-.16,0c-3.62.34-6.29,5.57-5.99,11.67.23,4.67,2.15,8.49,4.66,9.88-2.29-1.58-3.99-5.22-4.22-9.61-.31-6.1,2.38-11.33,6-11.67.83-.08,1.63.11,2.4.53,2.31,1.56,4.03,5.21,4.26,9.63.31,6.1-2.38,11.33-5.99,11.67ZM359.29,560.58l22.96,242.38,187.71-34.74-26.48-279.54-184.19,71.89ZM384.21,787.13l-21.02-221.96,165.54-64.61,23.8,251.23-168.31,35.34ZM273.55,564.77s-.1,0-.14-.01c-.17,0-.33,0-.5,0,.22,0,.43,0,.64.02ZM283.27,343.21c1.34-.13,1.94-.05,3.99-.25,6.37-.6,11.09-9.8,10.55-20.55-.51-10.07-5.46-17.93-11.33-18.38-.39-.03-3.47-.17-4.99,0,.02,0,.06,0,.08,0-.09,0-.18,0-.27,0-6.41.61-11.16,9.87-10.62,20.67.41,8.27,3.81,15.05,8.25,17.51-4.05-2.79-7.07-9.25-7.46-17.02-.55-10.81,4.21-20.06,10.62-20.67,1.48-.14,2.91.2,4.25.93,4.09,2.76,7.14,9.24,7.54,17.06.55,10.81-4.21,20.06-10.62,20.67ZM333.87,318.1c-1.45-28.72-15.58-51.11-32.3-52.39-1.1-.08-9.89-.48-14.21.02.06,0,.14,0,.21.01-.26.02-.51.01-.76.03-5.42.52-10.41,3.24-14.73,7.57,7.86-18.21,20.32-30.5,34.88-31.88,6.04-.57,11.89.81,17.38,3.76,16.81,11.31,29.42,37.92,31.03,70.06,2.23,44.35-17.28,82.33-43.57,84.82,5.48-.52,7.94-.22,16.34-1.01,26.14-2.48,45.53-40.22,43.31-84.32-2.08-41.33-22.42-73.57-46.49-75.4-1.58-.12-14.24-.69-20.45.02.08,0,.22.02.32.02-.37.02-.75.02-1.12.05-17.75,1.68-32.38,19.56-39.35,44.64-5.56,10.69-8.62,25.09-7.84,40.61.78,15.61,5.31,29.34,11.95,38.88,6.14,15.19,15.13,26.77,25.55,32.54-8.13-5.6-15.2-14.85-20.54-26.52,2.08,2.04,4.29,3.74,6.59,5.01-2.72-1.87-5.27-4.34-7.59-7.28-.16-.37-.33-.72-.49-1.1-1.32-1.54-2.53-3.29-3.7-5.12-5.29-9.23-8.81-21.42-9.5-35.03-1.55-30.82,12-57.2,30.27-58.93,4.21-.4,8.3.58,12.13,2.65,11.64,7.88,20.38,26.35,21.5,48.64,1.55,30.82-12.01,57.2-30.27,58.93,3.81-.36,5.52-.15,11.35-.7,18.16-1.72,31.64-27.95,30.1-58.59ZM313.79,240.29c.1.03.21.07.31.1-.31-.09-.64-.15-.95-.23.24.04.48.08.65.13ZM293.37,266.27c.16.03.32.06.43.09.07.02.13.05.2.07-.21-.05-.43-.1-.63-.15ZM340.1,489.48c.31-.02.62-.02.93-.05,55.4-5.25,96.38-87.64,91.53-184.03-4.85-96.39-53.69-170.27-109.09-165.03-16.19,1.53-31.13,9.69-44.07,22.82,11.86-10.72,25.23-17.37,39.6-18.74,54.84-5.2,103.19,67.95,107.99,163.36,4.69,93.25-33.94,173.21-86.89,181.66ZM476.59,673.56c.12-.01.23,0,.36-.02,21.93-2.08,38.15-34.69,36.23-72.85-1.92-38.16-21.26-67.41-43.19-65.33-6.41.6-12.32,3.84-17.44,9.03,4.69-4.25,9.99-6.88,15.68-7.42,21.71-2.06,40.85,26.9,42.75,64.67,1.86,36.91-13.44,68.57-34.39,71.91ZM449.98,626.44c1.26-.12,1.83-.05,3.76-.23,6.01-.57,10.47-9.26,9.96-19.4-.48-9.51-5.16-16.92-10.7-17.35-.36-.03-3.28-.16-4.7,0,.02,0,.06,0,.06,0-.07,0-.15,0-.24.01-6.05.57-10.53,9.31-10.02,19.52.39,7.8,3.59,14.21,7.79,16.52-3.83-2.64-6.68-8.73-7.06-16.07-.51-10.2,3.98-18.94,10.03-19.52,1.4-.13,2.75.19,4.02.88,3.86,2.61,6.74,8.72,7.12,16.11.51,10.2-3.98,18.94-10.02,19.51ZM488.28,530.48c-1.48-.12-13.3-.65-19.11.02.08,0,.21.01.3.02-.35.02-.69.02-1.04.05-16.57,1.57-30.22,18.26-36.74,41.66-5.2,9.99-8.06,23.44-7.34,37.96.74,14.66,5.01,27.54,11.27,36.46,5.73,14.09,14.07,24.88,23.76,30.25-7.6-5.23-14.22-13.88-19.21-24.79,1.95,1.92,4.02,3.51,6.18,4.71-10.78-7.43-18.84-24.64-19.87-45.33-1.45-28.79,11.21-53.44,28.27-55.05,3.94-.37,7.75.54,11.33,2.48,10.88,7.36,19.03,24.6,20.08,45.43,1.45,28.79-11.21,53.43-28.28,55.05,3.55-.34,5.15-.14,10.6-.66,16.96-1.61,29.55-26.11,28.1-54.72-1.35-26.83-14.54-47.75-30.17-48.93-1.02-.08-9.24-.45-13.27.02.05,0,.14,0,.2.01-.24.01-.48.01-.72.03-5.06.48-9.71,3.02-13.73,7.05,7.34-17,18.97-28.48,32.57-29.76,5.63-.53,11.09.75,16.21,3.5,15.72,10.55,27.5,35.42,29,65.45,2.09,41.43-16.14,76.9-40.69,79.23,5.12-.48,7.42-.2,15.26-.94,24.42-2.31,42.53-37.57,40.46-78.76-1.94-38.61-20.93-68.72-43.42-70.42ZM459.17,555.68c.06.02.12.05.19.06-.2-.05-.4-.09-.59-.14.15.02.3.05.41.08ZM477.26,531.22c.21.04.42.07.57.11.09.02.17.06.26.09-.27-.07-.55-.13-.83-.2ZM459.18,554.8c-.08,0-.17-.01-.24-.02-.27-.01-.56-.01-.83-.02.35,0,.71,0,1.07.04ZM530.71,296.44c.15-.01.29,0,.44-.02,26.28-2.49,45.71-41.57,43.41-87.29-2.3-45.72-25.47-80.76-51.75-78.27-7.67.73-14.76,4.59-20.9,10.82,5.63-5.09,11.97-8.24,18.78-8.89,26.01-2.46,48.94,32.23,51.22,77.49,2.23,44.23-16.09,82.15-41.2,86.16ZM498.83,239.99c1.52-.14,2.2-.06,4.51-.28,7.21-.68,12.55-11.09,11.93-23.24-.57-11.39-6.18-20.28-12.81-20.78-.43-.03-3.93-.19-5.64,0,.02,0,.06,0,.09,0-.1,0-.2,0-.3.01-7.25.69-12.63,11.16-12.01,23.38.47,9.36,4.32,17.02,9.34,19.8-4.58-3.16-8-10.46-8.44-19.25-.61-12.23,4.76-22.69,12.01-23.38,1.67-.16,3.29.23,4.81,1.05,4.63,3.13,8.08,10.45,8.53,19.3.62,12.22-4.77,22.69-12.02,23.38ZM499.21,195.91c.06.01.12.02.17.03.02,0,.05.02.07.03-.08-.02-.17-.04-.25-.06ZM733.01,760.32l-59.56-2.77s-17.52-3.44-4.68,11.32c12.84,14.75,33.6,39.52,33.6,39.52,0,0,4.39,4.57,7.07,4.25,2.69-.33,5.13-5.08,5.13-5.08,0,0,19.15-31.24,23.09-37.77,6.05-9.94-4.67-9.47-4.67-9.47ZM551.32,8.18c-1.1-.07-2.21-.06-3.33-.08,1.43.03,2.87.03,4.3.14-.32-.02-.68-.05-.97-.06ZM536.94,122.43c-.14-.01-.3-.02-.41-.03-.47-.03-.95-.02-1.43-.04.62.01,1.24.02,1.84.06ZM548.27,303.75c29.26-2.77,50.96-45.02,48.47-94.36-2.32-46.26-25.08-82.33-52.02-84.38-1.77-.13-15.93-.78-22.89.03.09,0,.23.02.34.02-.41.02-.82.02-1.23.06-19.85,1.88-36.21,21.87-44.01,49.9-6.24,11.97-9.67,28.1-8.8,45.51.88,17.47,5.94,32.82,13.37,43.5,6.86,17,16.93,29.97,28.6,36.43-9.1-6.27-17.04-16.63-23.01-29.7,2.33,2.3,4.8,4.2,7.39,5.64-12.92-8.91-22.57-29.52-23.81-54.32-1.73-34.49,13.43-64.02,33.88-65.96,4.71-.45,9.29.65,13.57,2.96,13.04,8.82,22.81,29.48,24.06,54.43,1.74,34.49-13.43,64.02-33.87,65.96,4.26-.4,6.17-.17,12.7-.79,20.32-1.93,35.41-31.28,33.68-65.56-1.62-32.14-17.43-57.2-36.15-58.63-1.22-.09-11.07-.54-15.9.02.07,0,.17,0,.24.02-.29.02-.57.01-.86.04-6.04.57-11.61,3.56-16.43,8.36,8.8-20.32,22.72-34.04,38.99-35.58,6.75-.64,13.29.9,19.43,4.19,18.82,12.65,32.93,42.43,34.74,78.41,2.5,49.64-19.33,92.14-48.76,94.93,6.13-.58,8.89-.24,18.28-1.13ZM509.85,155.2c.08.02.15.06.22.07-.23-.06-.46-.11-.7-.17.18.03.36.06.48.1ZM531.54,125.91c.25.04.5.09.67.13.11.03.21.08.32.11-.33-.09-.66-.16-.99-.24ZM503.04,685.26c-.18-.01-.36,0-.53-.01.22,0,.46,0,.68.02-.05,0-.11,0-.15-.01ZM453.12,454.3s31.4-13.14,41.86-17.56c10.46-4.43,3.03-11.88,3.03-11.88l-25.43-29.8c-6.54-7.11-8.88,3.59-8.88,3.59,0,0-10.33,32.59-14.93,46.05-4.59,13.46,4.35,9.61,4.35,9.61ZM463.23,438.18c2.81-8.23,9.79-28.75,9.79-28.75,0,0,.76-5.93,4.75-1.59l15.54,18.21s4.54,4.56-1.85,7.26c-6.4,2.71-25.58,10.74-25.58,10.74,0,0-5.46,2.36-2.66-5.87ZM509.86,154.15c-.09,0-.2-.01-.29-.02-.33-.02-.66-.02-.99-.03.42.01.85.01,1.28.05ZM312.44,392.56c.13-.01.26,0,.39-.02,23.48-2.22,40.85-37.15,38.79-78-2.06-40.85-22.76-72.16-46.24-69.94-6.85.65-13.19,4.11-18.67,9.67,5.02-4.54,10.69-7.36,16.77-7.94,23.24-2.2,43.74,28.8,45.77,69.24,1.99,39.52-14.39,73.41-36.82,76.99ZM318,237.07c-.12,0-.26-.02-.36-.03-.42-.03-.85-.02-1.27-.03.55.01,1.1.02,1.63.06ZM493.73,39.76c13.26-12,28.23-19.44,44.32-20.97,61.37-5.81,115.48,76.04,120.85,182.82,5.25,104.35-37.99,193.85-97.24,203.29.35-.03.69-.02,1.04-.05,62-5.87,107.85-98.08,102.43-205.95-5.43-107.87-60.09-190.56-122.09-184.68-18.11,1.72-34.83,10.85-49.31,25.54ZM330.78,894.73c.08,0,.18,0,.27-.02,16.45-1.56,28.61-26.02,27.17-54.63-1.44-28.62-15.94-50.55-32.39-48.99-4.81.46-9.24,2.88-13.08,6.77,3.52-3.18,7.49-5.16,11.75-5.56,16.28-1.54,30.64,20.17,32.06,48.5,1.39,27.68-10.08,51.42-25.79,53.93ZM489.61,967.53c-.42-8.52-4.87-15.03-9.91-14.56-1.47.14-2.83.87-4,2.03l9.54,26.8c2.88-2.81,4.68-8.22,4.37-14.28ZM471.35,969.26c.42,8.52,4.87,15.04,9.91,14.56.82-.08,1.6-.35,2.33-.76l-9.34-26.26c-1.99,3.02-3.14,7.53-2.89,12.46ZM307.04,845.69c.51,10.08,4.65,18.33,10.06,21.33-4.93-3.4-8.62-11.27-9.1-20.74-.66-13.17,5.13-24.44,12.93-25.18,1.81-.17,3.56.25,5.2,1.14,4.97,3.37,8.69,11.25,9.17,20.77.66,13.17-5.13,24.44-12.94,25.18,1.63-.15,2.36-.07,4.85-.3,7.76-.73,13.52-11.94,12.86-25.03-.62-12.27-6.66-21.84-13.8-22.39-.47-.03-4.23-.2-6.07.01.07,0,.21.01.34.02-.19,0-.38-.02-.57,0-7.8.74-13.6,12.01-12.94,25.18ZM322.97,820.75s.09.03.13.04c-.23-.06-.47-.09-.71-.14.24.03.46.06.58.09ZM324.22,819.79s-.09,0-.12,0c-.12,0-.25,0-.38,0,.16,0,.33,0,.5.02ZM483.86,936.65s-.1,0-.14,0c-.17-.01-.33-.01-.5-.01.22,0,.43,0,.64.02ZM887.05,503.74l7.91,83.49c5.59-11.68,8.2-25.97,6.78-41.45-1.44-15.66-6.79-30.17-14.69-42.04ZM314.28,839.3s-.02,0-.02,0c-.01,0-.03,0-.05,0,.03,0,.05,0,.07.01ZM1216.46,655.24l-29.46-311c-2.97-31.33-31.49-59.34-63.38-62.25l-217.57-19.83c-7.76-.71-15.01.18-21.53,2.31-34.37-20.52-71.01-37.61-109.47-50.81-.07-2.95-.16-5.91-.31-8.88-5.43-107.85-58.48-191.95-121.29-196.72-4.12-.31-81.89-6.55-101.91-7.86.12,0,.25.04.38.04-4.34-.35-8.72-.35-13.14.07-50.81,4.81-91.89,60.45-107.42,136-3.05-.67-6.13-1.21-9.25-1.44-3.68-.28-73.17-5.85-91.05-7.02.24.02.48.07.72.09-1.34-.12-2.69-.16-4.04-.2,1.1.02,2.21.03,3.32.11-.29-.02-.61-.04-.87-.06-.87-.06-1.75-.05-2.63-.06-2.62-.06-5.25-.02-7.89.23-58.54,5.55-102.61,86.54-101.95,183.87C84.96,419.08,0,583.15,0,767.11c0,265.97,177.5,490.45,420.48,561.54l20.56-42.06C213.3,1219.04,47.15,1008.21,47.15,758.54c0-158.45,66.96-301.22,174.07-401.69,9.81,64.71,39.08,116.02,75.86,136.37-38.75-26.7-67.67-88.5-71.42-162.86-5.21-103.41,40.28-191.95,101.58-197.76,14.19-1.34,27.98,1.93,40.87,8.94,2.98,2.03,5.93,4.21,8.79,6.65l51.63,3.97c-.11.7-.21,1.41-.31,2.11l-42.38,2.37c.36.38.72.77,1.07,1.15l40.54,1.87c-.2,1.54-.36,3.11-.55,4.67l-31.39,3.63c.16.22.33.43.5.65l30.27,1.39c-.33,3.42-.62,6.86-.85,10.33l-19.23,3.35c.41.68.81,1.35,1.21,2.04l17.7.56c-.28,5.71-.42,11.48-.42,17.31l-7.21,1.79c.25.56.52,1.11.77,1.68l6.46.41c.05,4.7.16,9.42.4,14.18,1.53,30.39,6.82,58.9,15.03,84.31,3.86,83.14-25.02,156.46-68.49,184.58l38.22-14.78c27.17-24.83,45.23-72.78,45.84-127.67,8.4,17.73,34.15,64.86,76.31,80.43l15.75-6.09c-13.04-3.04-20.92-6.47-29.37-10.82-3.25-1.78-6.45-3.81-9.59-5.95-40.98-31.52-71.18-98.63-75.21-178.8-5.83-115.73,45.07-214.82,113.68-221.32,15.89-1.51,31.32,2.16,45.75,10.02,3.33,2.27,6.62,4.71,9.83,7.43l75.38,5.8-65.38,3.66c.41.42.8.86,1.2,1.29l77.3,3.56-67.68,7.82c.19.24.38.48.56.73l85.67,3.94-74.27,12.92c.46.76.91,1.51,1.35,2.28l88.76,2.8-77.5,19.2c.28.63.58,1.24.85,1.88l92.94,5.88-82.53,22.26c.39,1.27.79,2.53,1.17,3.82l85.88,4.25-81.03,14.3c.2.85.37,1.72.57,2.58l80.81,4.84-78.37,7.43c2.53,14.08,4.26,28.75,5.02,43.91,5.83,115.73-45.07,214.82-113.68,221.32,14.29-1.35,79.94,7.43,101.85,5.36,61.75-5.85,109.06-87.15,113.17-187.86,31.45,10.65,61.62,24.07,90.23,39.97-5.46,5.99-9.29,13.5-10.93,22.03-8.07,16.04-24.74,49.2-38.56,76.88l-.03-.29-.82,1.98c-7.32,14.66-13.76,27.63-17.57,35.44-13.77,28.21-10.39,38.66-10.39,38.66,0,0,1.24,13.12,3,31.72-2.32,2.21-4.49,4.65-6.48,7.3-5.61-5.99-11.69-11.29-18.11-15.82.39.27.79.52,1.18.79l-3.66-38.65-195.67-13.86,41.79,441.08,193.42-9.87-16.63-175.57c-.14.12-.29.22-.42.33,13.35-10.94,23.76-26.5,30.06-45.06.71.52,1.14.75,1.14.75l88.74,52.18c11.56,11.61,26.89,19.62,43.12,21.1l197.93-1.02c1.58,16.97,2.43,34.15,2.43,51.53,0,210.5-118.1,393.41-291.66,486.11l-53.31-55.63c1.22-4.25,1.69-8.83,1.25-13.56-1.54-16.26-13.3-28.85-27.6-30.87l-2.25-23.73h-.14c.06-.07.13-.16.12-.23-.08-.84-4.19-1.25-11.53-1.29-4.36-5.67-25.14-30.09-25.2-30.71-.11-1.22-34.68-2.46-81.92.35l-4.95-65.12c2.02-.21,3.46-.36,4.15-.42,23.72-2.25,40.15-33.55,36.38-73.38-2.61-27.53-14-49.89-28.62-60.42l139.8-26.11-193.42,9.87-296.2,54.82,189.68-11.56c-1.12,2.66-2.14,5.45-3.01,8.4-7.03.4-13.46.8-15.5.98-10.99,1.04-19.14,14.02-20.72,31.02-.82,3.95-1.18,8.24-.95,12.73.11,2.14.38,4.18.72,6.17-31.4,20.45-98.51,64.75-119.52,78.63-5.3-2.24-10.83-2.21-15.11.68-2.83,1.91-4.72,4.81-5.65,8.2-18.22,9.76-73.97,41.58-75.26,42.45-9.02,6.09-9.78,20.76-1.67,32.77,6.74,9.99,17.47,14.96,26.08,12.86,2.38-.42,4.99-1.3,7.67-2.94,1.11-.67,2.09-1.42,2.96-2.21,1.24-1.14,46.5-38.62,61.99-51.14,3.37.32,6.63-.34,9.37-2.19,4.04-2.73,6.13-7.44,6.28-12.79,21.37-13.92,94.06-61.24,117.97-76.66,1.4,1.22,2.85,2.27,4.36,3.08-3.72-2.47-7.11-6.3-9.91-11.12.92.81,1.87,1.52,2.86,2.07-1.27-.87-2.45-2.03-3.57-3.32-3.53-6.5-6.02-14.63-6.87-23.59-.56-5.95-.33-11.67.53-16.91,2.82-9.13,8.31-15.57,14.92-16.19,2.35-.22,4.64.32,6.77,1.48,6.51,4.4,11.38,14.71,12.01,27.16.87,17.21-6.7,31.94-16.9,32.91,2.12-.2,3.08-.09,6.34-.39,10.14-.96,17.67-15.61,16.8-32.71-.8-16.04-8.69-28.54-18.03-29.25-.62-.05-5.52-.27-7.94,0,.03,0,.08,0,.12,0-.14,0-.29,0-.43.02-4.55.43-8.58,3.62-11.56,8.53,3.54-10.42,10.04-17.58,18.07-18.35,3.13-.3,6.22.42,9.15,1.96,8.96,5.83,16.09,19.52,17.65,36.04,2.16,22.83-7.11,42.4-20.7,43.68,1.34-.13,8.46-.63,16.04-1.17,5.88,10.91,13.41,19.25,21.73,23.7-6.92-4.59-13.18-11.92-18.27-21.11,2.4,2.38,4.95,4.32,7.62,5.69-3.21-2.06-6.2-4.92-8.91-8.44,7.75-.55,15.47-1.11,17.56-1.3,13.52-1.29,22.73-20.72,20.57-43.42-2.02-21.29-13.3-37.87-25.84-38.81-.4-.03-8.44.38-17.12.86,4.9-8.12,11.5-13.45,19.1-14.42,4.11-.53,8.15.29,11.97,2.2,11.67,7.34,20.8,25.14,22.61,46.94,2.51,30.13-9.91,56.41-27.75,58.69,3.71-.47,5.39-.33,11.09-1.05,17.73-2.26,30.08-28.38,27.58-58.34-2.34-28.08-16.88-49.56-33.31-50.27-1.08-.05-9.69-.15-13.91.47.05,0,.14,0,.21,0-.25.02-.51.03-.75.06-6.9.88-12.98,5.39-17.71,12.29,6.38-17,17.43-28.53,30.91-29.8,5.49-.52,10.92.75,16.05,3.44,15.73,10.24,28.23,34.25,30.97,63.23,3.79,40.08-12.47,74.4-36.32,76.66,1.88-.18,16.79-1.74,35.03-3.66,2.27-2.19,25.84-24.35,53.85-26.7,8.47-.24,14.78,5.37,15.12,11.22l.2,2.11c-.34-5.85-6.23-6.98-14.69-6.73-29.47,2.47-54.7,20.33-54.7,20.33l4.87,64.22c-46.93,6.11-80.63,13.82-80.52,15.04.05.52-11.52,21.03-16.88,30.94l17.92-28.8-15.89,31.77c-1.2.21-2.33.41-3.42.61l-.53.03s-.02.04-.03.07c-8.96,1.65-13.96,3.02-13.86,3.96,0,.08.08.15.17.22h-.14s2.5,26.43,2.5,26.43c-.62.05-1.12.09-1.48.13-3.97.38-7.61,1.85-10.79,4.12l42.83-6.37h-.13c33.54-2.27,81.68-5.42,87.51-5.98-14.66,1.39-25.15,17.22-23.43,35.35,1.72,18.13,15,31.71,29.65,30.32-2.92.28-15.66,1.08-31.78,2.06,10.45-.64,19.48-1.2,25.32-1.59-11.39-1.48-15.47-6.05-15.47-6.05l-14.71.48-2.95-5.07,12.68-3.39-14,1.13-3.29-5.65,14.15-2.58-15.38.47-3.93-6.74-4.08,8.08-1.36,2.7-2.54,5.04-1.07,2.13-2.35,4.66-1.64,3.26-55.78,110.62c5.93,1.06,11.91,1.99,17.91,2.86l-.03.05c1.52.22,3.05.39,4.57.6,1.45.2,2.88.43,4.33.61l.02-.05c9.25,1.21,18.56,2.28,27.94,3.05h0c.71.08,1.42.11,2.13.16l2.46-64.56,15.84-29.88-6.78,95.25c11.58.68,23.25,1.04,35,1.04,8.9,0,17.75-.24,26.56-.65v.03c.89-.04,1.78-.11,2.67-.15,2.33-.12,4.65-.26,6.97-.4,74.73-4.56,145.65-23.14,210.2-53.16h0c.05-.02.1-.05.15-.07.68-.32,1.36-.61,2.03-.93l-.03-.03c2.26-1.05,4.51-2.11,6.75-3.19l-83-79.08c4.64-4.13,10.19-11.6,12.24-24.61,0,0,.03.04.09.1.03.02.08.08.11.12.05.04.09.09.15.15.06.06.14.14.21.22.08.08.15.16.24.25.11.11.25.25.38.39.03.03.04.05.07.07.38.39.85.87,1.41,1.45.09.09.19.19.28.29.24.25.49.5.76.78.02.02.04.04.07.07,10.66,10.93,43.26,44.23,87.44,89.34,3.06-1.64,6.1-3.32,9.13-5.01l.02.03c3.93-2.2,7.82-4.45,11.7-6.74.21-.12.42-.24.63-.37h0c172.24-101.82,287.79-289.37,287.79-503.94,0-20.29-1.1-40.31-3.12-60.06,30.31,1.17,52.38-21.5,49.51-51.8ZM322.82,1067.6c-.08,1.68.05,3.42.36,5.2l-73.76,40.88,73.4-46.08ZM246.52,1120.55l76.69-47.61c.28,1.54.71,3.1,1.29,4.66l-77.98,42.95ZM464.25,978.48c.16.69.34,1.35.53,2.02l-121.55,79.87,121.03-81.89ZM464.82,980.62c.29,1.05.59,2.09.95,3.08l-123.71,80.38,122.75-83.45ZM354,1085.84c-5.67,3.82-14.39.81-19.49-6.74-5.1-7.55-4.62-16.77,1.05-20.6,1.53-1.03,3.3-1.51,5.15-1.59-1.78,1.18-2.82,1.87-2.89,1.92-5.26,3.55-5.7,12.1-.97,19.1,4.72,7,12.81,9.79,18.06,6.25,0,0,.64-.41,1.71-1.11-.7,1.08-1.53,2.05-2.61,2.78ZM341.49,1067.72l124.33-83.91c.42,1.14.86,2.24,1.36,3.29l-125.69,80.63ZM467.28,985.06c-.23-.59-.47-1.16-.68-1.78l.09-.06c.2.62.38,1.24.59,1.84ZM466.67,983.16s0-.03-.02-.04l-.09.06c-.33-1.01-.61-2.07-.88-3.14l.05-.03s-.02-.07-.03-.11l-.04.04c-.41-1.65-.73-3.36-.97-5.14.49,2.92,1.15,5.72,1.97,8.37ZM483.85,937.17s.07.03.11.04c-.12-.03-.23-.06-.35-.09.09.02.18.03.24.05ZM529.65,909.35c.06,0,.12.04.19.05-.21-.05-.41-.09-.62-.13.15.02.31.04.42.07ZM538.79,1306.13c-2.71-.29-5.41-.64-8.12-.97l9.11-17.17-.99,18.14ZM603.5,1102.42l7.98,27.45c-3.75.37-7.48.74-11.15,1.11l3.18-28.56ZM591.74,1103.26l6.1,27.97c-3.58.37-7.11.73-10.59,1.1l4.49-29.07ZM579.66,1104.21l5.11,28.38c-3.15.33-6.24.67-9.3,1l4.2-29.38ZM568.76,1105.63l4.49,28.2c-3.24.35-6.42.7-9.55,1.06l5.07-29.26ZM557.81,1106.47l3.62,28.67c-3,.34-5.96.68-8.86,1.02l5.24-29.69ZM550.7,1136.38c-2.98.35-5.87.7-8.71,1.04l7.74-30.27.97,29.23ZM540.58,1137.6c-3.36.41-6.62.82-9.78,1.22l11.79-30.47-2,29.25ZM529.72,1138.96c-2.95.37-5.82.75-8.59,1.12l14.72-31.61-6.13,30.49ZM520.33,1140.18c-3.04.41-5.98.81-8.77,1.2l17.89-32.04-9.12,30.84ZM510.81,1141.49c-2.63.37-5.16.74-7.55,1.1l19.75-32.91-12.2,31.81ZM502.62,1142.69c-2.25.34-4.35.67-6.37.99l19.94-32.05-13.57,31.06ZM510.66,1113.45l-14.8,30.29c-1.57.26-3.1.5-4.53.75l19.33-31.04ZM581.66,1150.16c-37.64,3.57-71.76,7.56-97.03,11.19.39-4.05,43.31-11.35,96.54-16.39,53.24-5.04,96.76-5.93,97.9-2.02-25.5,1.17-59.77,3.66-97.41,7.22ZM607.57,1221.74c-9.28.88-17.71-7.2-19.57-18.34,1.71,9.57,8.99,16.47,17,15.71,8.53-.81,14.64-10.02,13.64-20.58-1-10.56-8.72-18.46-17.26-17.65-8,.75-13.87,8.9-13.75,18.61-.26-11.29,6.51-20.81,15.78-21.68,9.8-.93,18.69,8.15,19.83,20.29,1.15,12.13-5.87,22.72-15.67,23.65ZM731.07,1222.42c3.98-.38,11.84-1.94,20.14-3.75-.63.3-1.02.44-1.02.44l52.45,50.81c-53.27,21.35-110.65,34.61-170.63,38.27l9.87-87.19,46.52-4.41c4.06-.38,6.55-9.24,5.55-19.78-.32-3.46-1-6.66-1.89-9.4,1.14-.12,2.26-.26,3.38-.39-.13-16.83,10.78-31.25,25.93-34.29,1-.2,2.02-.36,3.06-.46,1.05-.1,2.1-.13,3.14-.12.36,0,.71.04,1.06.06.68.03,1.35.07,2.02.14.42.05.85.12,1.27.19.58.09,1.16.19,1.73.32.46.1.91.22,1.36.34.53.14,1.04.29,1.55.45.47.16.94.33,1.41.5.46.18.91.37,1.36.56.49.22.99.44,1.47.69.39.19.77.4,1.15.61.52.29,1.04.58,1.54.89.29.19.58.39.87.59.57.38,1.13.76,1.67,1.18.13.1.25.21.38.31,4.43,3.51,8.06,8.19,10.46,13.68,0,.02.01.03.02.04.4.92.77,1.87,1.09,2.83.01.03.02.05.03.08.33.97.62,1.96.87,2.96.47,1.85.83,3.74,1.02,5.71,1.83,19.36-11.07,36.42-28.82,38.11ZM790.63,491.86l.78,8.26c-1.1-1.42-2.2-2.84-3.34-4.2.81-1.39,1.67-2.75,2.56-4.06ZM784.73,502.42c1.34-.36,2.33-.59,2.82-.65,1.28-.15,2.58-.22,3.9-.21.03,0,.07,0,.1,0l.43,4.56c-4.72,11.13-6.87,24.37-5.56,38.64,1.33,14.47,6.01,27.96,12.94,39.29l1.43,15.1s0,0,0,0c-12.17-13.99-20.64-33.06-22.58-54.04-1.45-15.85,1.05-30.52,6.52-42.7ZM752.59,443.23c3.15.03,6,3.24,6.36,7.16.16,1.65-.18,3.15-.83,4.36l-7.16-11.19c.51-.2,1.04-.34,1.62-.33ZM748.93,445.08l7.44,11.63c-.72.47-1.55.76-2.46.75-3.15-.03-5.99-3.23-6.36-7.16-.19-2.08.36-3.92,1.38-5.22ZM777.43,500.15c-2.27,4.48-4.14,9.33-5.52,14.5-7.86,7.87-12.28,20.52-10.97,34.88,1.56,16.94,10.66,31.65,22.63,38.97,2.92,4.71,6.21,9.06,9.79,12.99-2.35.74-4.85,1.53-7.37,2.32-4.77-.78-9.42-2.57-13.81-5.12.86,2.64,1.57,5.37,2.04,8.18.37.07.74.19,1.12.25-.36.11-.71.21-1.05.32.2,1.26.38,2.52.5,3.8,2.05,22.33-9.51,40.68-26.47,43.56-.62.11-5.63,1.69-11.72,3.61-20.64-2.27-38.44-22.1-40.65-46.23-2.35-25.64,13.79-46.4,36.05-46.39.93,0,1.87.08,2.79.15.07.24.12.5.19.74.09,0,.17-.02.26-.01,4.35.04,8.58,1.1,12.59,2.91-2.05-5-3.57-10.32-4.35-15.88-2.61-18.43,3.14-34.46,13.88-43.11,5.21-1.61,11.35-3.5,16.77-5.13-16.72-18.71-38.43-30.38-61.25-30.58-29.96-.26-54.39,19.31-66.26,48.86,11.72-32.13,37.49-53.66,69.35-53.38,22.77.2,44.48,11.52,61.45,29.78ZM739.14,524.1c.94,10.22-1.79,19.36-6.86,25.64.06,2.37.25,4.8.6,7.27.43,3.03,1.1,5.99,1.92,8.88-1.37-.16-2.75-.27-4.14-.27-3.81,0-7.42.64-10.8,1.77-.41-2.02-.75-4.06-.95-6.15-.1-1.06-.13-2.1-.18-3.14-.1.02-.18.05-.28.07-.65.11-7.4,2.27-14.14,4.39-14.65-2.4-27.87-17.59-30.46-35.92-1.88-13.22,2.25-24.7,9.94-30.9,8.24-2.55,19.81-6.11,21.62-6.32.92-.11,1.85-.16,2.8-.15,13.45.12,25.75,12.16,29.75,28.02,2.44-1.39,5.04-2.48,7.8-3.15.17-.04.53-.14,1.01-.29-3.03,2.44-5.65,5.48-7.82,8.98.05.43.13.84.17,1.27ZM666.23,529c2.59,18.31,15.8,33.5,30.45,35.91-3.11.94-5.53,1.64-6.24,1.74-1.08.15-2.18.23-3.3.22-15.32-.13-29.16-15.73-30.91-34.84-1.55-16.82,6.79-30.76,19.25-33.76.12-.03.39-.1.73-.21-7.72,6.2-11.86,17.71-9.98,30.94ZM693.39,578.19c.16-.04.5-.14.94-.26-9.87,7.92-15.16,22.64-12.75,39.57,3.31,23.43,20.21,42.85,38.94,45.93-3.99,1.21-7.07,2.1-7.99,2.23-1.37.19-2.78.29-4.22.27-19.59-.17-37.3-20.12-39.54-44.57-1.98-21.52,8.68-39.34,24.62-43.18ZM691.3,614.47c-2.4-16.9,2.88-31.59,12.72-39.52,1.54-.48,3.17-.98,4.85-1.5-10.12,8.37-15.98,22.63-14.5,38.85,2.23,24.28,20.14,44.23,40.9,46.52-1.63.52-3.32,1.05-5.02,1.58-18.73-3.08-35.65-22.5-38.96-45.94ZM705.15,458.09c1.29-.15,2.6-.25,3.91-.33-49.81,3.29-84.8,54.84-78.96,118.35,6.06,65.92,53.81,119.75,106.66,120.21,4.85.04,9.57-.39,14.15-1.22-.27.05-.53.13-.8.17-2.67.45-15.64,3.31-27.27,5.73-52.82-8.75-97.64-61.13-103.45-124.38-4.44-48.38,15.15-90.28,47.53-111.12,13.1-2.81,31.73-6.63,38.24-7.4ZM583.58,433.82c3.54.03,6.74,3.64,7.15,8.05.17,1.86-.21,3.55-.93,4.9l-8.05-12.58c.57-.22,1.18-.38,1.83-.37ZM577.91,441.77c-.21-2.34.41-4.41,1.56-5.87l8.36,13.08c-.81.53-1.74.85-2.77.84-3.54-.03-6.74-3.64-7.15-8.06ZM587.49,584.83c-5.34-58.04,23.42-106.11,66.43-116.47,1.13-.27,3.38-.78,6.32-1.43-30.95,21.54-49.44,62.7-45.1,110.01,5.8,63.21,50.32,115.65,103,125-5.31,1.08-9.96,1.97-12.6,2.34-3.71.53-7.51.78-11.39.75-52.84-.46-100.6-54.29-106.66-120.21ZM625.24,855.84c-3.54-.03-6.74-3.64-7.15-8.06-.21-2.34.41-4.41,1.56-5.87l8.36,13.08c-.81.53-1.74.85-2.77.84ZM629.98,852.8l-8.05-12.58c.57-.22,1.18-.38,1.83-.37,3.54.03,6.74,3.64,7.15,8.05.17,1.86-.21,3.55-.94,4.9ZM752.38,760.4c-5.6,9.26-32.78,53.61-32.78,53.61,0,0-3.48,6.74-7.28,7.2-3.81.46-10.05-6.03-10.05-6.03,0,0-29.47-35.16-47.7-56.1-18.22-20.94,6.64-16.07,6.64-16.07l84.54,3.93s15.21-.66,6.62,13.45ZM788.77,834.14c3.15.03,6,3.23,6.36,7.16.16,1.66-.18,3.16-.82,4.36l-7.17-11.19c.51-.2,1.05-.33,1.63-.33ZM792.54,847.62c-.72.47-1.55.76-2.46.75-3.16-.03-6-3.23-6.36-7.17-.19-2.08.36-3.93,1.38-5.22l7.44,11.63ZM735.58,683.52c-10.91-.1-21.56-2.76-31.57-7.49,8.92,3.82,18.33,5.96,27.93,6.04,35.73.31,63.58-27.6,71.65-67,1.01,3.37,2.2,6.24,3.44,8.62-10.48,35.67-37.5,60.13-71.45,59.83ZM828.74,635.37c-26.93-12.54-24.2-37.61-24.2-37.61,0,0-11.56-122.03-13.33-140.7-1.09-11.52,2.4-22.6,5.23-29.41l22.7,178.53-16.95-190.05,7.64-14.45,27.12,213.28-20.19-226.36,12.83-24.24,34.51,271.4-25.69-288.06,15.49-29.29,31.01,327.36c.59,6.2,2.21,12.26,4.63,18.03-15.17-7.11-42.17-19.77-60.8-28.44ZM952.32,697.63c-30.4-2.77-57.59-29.48-60.42-59.35l-29.98-316.49c-2.83-29.88,19.73-52.05,50.13-49.28l207.46,18.91c1.82.17,3.62.43,5.42.76.74.13,1.45.33,2.18.5,1.03.23,2.06.45,3.09.73.95.27,1.88.59,2.81.9.76.25,1.52.49,2.27.76,1.09.41,2.15.86,3.22,1.32.55.24,1.1.47,1.66.72,1.18.56,2.36,1.15,3.52,1.78.38.2.76.4,1.13.61,1.27.71,2.51,1.46,3.73,2.25.23.15.45.29.68.45,1.31.87,2.61,1.78,3.86,2.74.1.08.21.16.31.24,1.33,1.03,2.64,2.1,3.9,3.22,0,0,0,0,0,0-8.82-5.74-18.84-9.56-29.25-10.51l-207.46-18.91c-30.4-2.77-52.96,19.4-50.13,49.28l12.83,135.49,17,1.55c12.7,1.16,24.06,12.31,25.24,24.79l11.73,123.85c.45,4.72-.63,8.97-2.82,12.38,36.25,11.7,176,56.8,218.36,70.27l-200.45,1.03ZM951.71,502.33l214.2-110.72-217.59,84.55,206.7-112.75-223.29,101.53,239.77-139.33c4.57,7.75,7.58,16.31,8.42,25.15l9.83,103.76-238.05,47.8ZM531.42,908.35c-.08,0-.17-.01-.25-.02-.29-.02-.58-.01-.87-.02.38,0,.75,0,1.12.04ZM316.7,828.2c.11,0,.22,0,.33.01-.03,0-.05,0-.08,0-.09,0-.17,0-.26,0ZM404.24,682.4c-.05,0-.11,0-.16-.01-.19-.01-.38-.01-.56-.01.24,0,.49,0,.72.03ZM424.03,665.86c-1-.08-9.05-.44-12.99.01.05,0,.14.01.21.02-.24.01-.48.01-.71.03-11.26,1.07-20.54,12.4-24.97,28.3-3.55,6.8-5.51,15.96-5.01,25.85.5,9.97,3.41,18.74,7.66,24.8,3.89,9.58,9.56,16.92,16.15,20.56-5.17-3.56-9.67-9.44-13.06-16.86,1.32,1.3,2.73,2.38,4.19,3.2-7.33-5.06-12.81-16.75-13.52-30.83-.99-19.58,7.63-36.34,19.23-37.44,2.68-.25,5.28.37,7.71,1.68,7.4,5,12.94,16.73,13.66,30.9.98,19.57-7.63,36.34-19.23,37.43,2.42-.23,3.51-.1,7.21-.44,11.54-1.09,20.1-17.76,19.12-37.21-.92-18.25-9.89-32.47-20.52-33.28-.69-.05-6.28-.3-9.03.01.04,0,.1,0,.14,0-.17,0-.33,0-.49.02-3.42.32-6.57,2.04-9.3,4.75,4.99-11.53,12.87-19.32,22.1-20.2,3.85-.36,7.57.52,11.08,2.41,10.66,7.2,18.64,24.08,19.66,44.47,1.43,28.17-10.97,52.3-27.67,53.88,3.48-.33,5.04-.14,10.38-.64,16.6-1.58,28.92-25.55,27.51-53.56-1.32-26.26-14.23-46.73-29.53-47.89ZM404.23,683s.08.03.12.04c-.14-.03-.27-.06-.4-.09.1.02.2.03.27.05ZM416.53,666.37c.14.03.29.05.39.08.06.02.12.04.17.06-.18-.05-.37-.09-.56-.14ZM506.07,718.43c-.31-6.06-3.29-10.79-6.82-11.06-.23-.02-2.09-.1-3,0,.02,0,.03,0,.05,0-.05,0-.1,0-.16,0-3.86.37-6.72,5.93-6.39,12.44.25,4.98,2.29,9.06,4.97,10.54-2.43-1.68-4.25-5.57-4.49-10.24-.33-6.51,2.53-12.08,6.39-12.44.89-.08,1.75.12,2.56.56,2.46,1.66,4.3,5.56,4.54,10.27.33,6.5-2.53,12.07-6.39,12.44.8-.08,1.16-.03,2.39-.15,3.84-.36,6.68-5.9,6.35-12.37ZM507.8,685.45c-.65-.05-5.89-.28-8.45,0,.03,0,.08,0,.12,0-.15,0-.3,0-.46.02-10.87,1.03-18.95,16.74-18.02,35.09.71,14.04,6.48,25.55,14.02,29.72-6.87-4.74-12.01-15.71-12.67-28.9-.93-18.35,7.15-34.06,18.03-35.09,2.51-.24,4.95.34,7.23,1.58,6.94,4.69,12.13,15.69,12.8,28.96.92,18.35-7.15,34.06-18.03,35.09,2.26-.22,3.29-.09,6.76-.42,10.81-1.03,18.83-16.64,17.91-34.88-.86-17.1-9.27-30.44-19.24-31.19ZM502.93,685.78c.09.02.19.03.26.05.04,0,.07.03.12.04-.13-.03-.25-.06-.37-.09ZM419.6,664.4c-.07,0-.16-.01-.24-.02-.26-.02-.54-.01-.81-.02.35,0,.7.01,1.04.04ZM414.27,717.53c-.61-12.29-7.02-21.69-14.3-21-7.27.69-12.67,11.21-12.05,23.5.62,12.29,7.02,21.69,14.29,21,7.27-.69,12.68-11.21,12.06-23.5ZM317.09,828.51s-.04-.02-.06-.03c-.03,0-.08-.01-.12-.02.06.02.12.03.18.05ZM410.8,645.49c-.15.02-.29.05-.43.06.05,0,.1.01.15,0,.8-.07,5.4-.27,6.85-.32.88-.03,1.8-.36,2.73-1.17,3.53-3.09-1.98-11.15-1.98-11.15l-21.65-32.88s-2.51-4.01-6.61-3.56c-.99.11-6.26.27-6.71.29-.06,0-.12.02-.17.03,3.97-.29,6.4,3.58,6.4,3.58l21.65,32.88s5.51,8.05,1.98,11.15c-.72.63-1.45.95-2.14,1.08-.24-.03-2.2-.08-3.61-1.51-6.69-6.87-28.42-33.18-28.42-33.18-.57-1.17-6.47-6.2.32-12.2.58-.52,1.14-.91,1.68-1.24-.87.37-1.79.94-2.76,1.8-6.78,6-1.36,11.47-.79,12.64l27.55,30.48s2.75,3.77,5.97,3.22ZM333.5,843.1c.59,11.73-4.27,21.79-10.93,22.85.04,0,.07,0,.12,0,6.97-.66,12.12-11.02,11.52-23.15-.61-12.13-6.76-21.42-13.73-20.76-2.03.19-3.91,1.22-5.54,2.87,1.49-1.35,3.18-2.18,4.98-2.36,6.9-.66,12.98,8.55,13.59,20.55ZM481.43,528.3c-.4-.03-.8-.02-1.19-.03.51.01,1.02.02,1.53.05-.12,0-.24-.01-.35-.02Z"/>
  </g>
</svg>